<svg xmlns="http://www.w3.org/2000/svg" xmlns:xlink="http://www.w3.org/1999/xlink" width="120" zoomAndPan="magnify" viewBox="0 0 375 374.999991" height="500" preserveAspectRatio="xMidYMid meet" version="1.0"><defs><g/><clipPath id="ff005228f3"><path d="M 39.3125 250.320312 L 151.820312 250.320312 L 151.820312 263.867188 L 39.3125 263.867188 Z M 39.3125 250.320312 " clip-rule="nonzero"/></clipPath><clipPath id="6c065e79f8"><path d="M 40.8125 250.320312 L 150.3125 250.320312 C 150.710938 250.320312 151.089844 250.476562 151.371094 250.757812 C 151.652344 251.039062 151.8125 251.421875 151.8125 251.820312 L 151.8125 262.367188 C 151.8125 262.765625 151.652344 263.148438 151.371094 263.429688 C 151.089844 263.710938 150.710938 263.867188 150.3125 263.867188 L 40.8125 263.867188 C 40.414062 263.867188 40.03125 263.710938 39.75 263.429688 C 39.46875 263.148438 39.3125 262.765625 39.3125 262.367188 L 39.3125 251.820312 C 39.3125 251.421875 39.46875 251.039062 39.75 250.757812 C 40.03125 250.476562 40.414062 250.320312 40.8125 250.320312 Z M 40.8125 250.320312 " clip-rule="nonzero"/></clipPath><clipPath id="4acbcd8d50"><path d="M 259.449219 106 L 337.449219 106 L 337.449219 188 L 259.449219 188 Z M 259.449219 106 " clip-rule="nonzero"/></clipPath></defs><g fill="#ce441e" fill-opacity="1"><g transform="translate(37.500002, 183.610655)"><g><path d="M 13.703125 -29.59375 C 14.429688 -30.71875 15.421875 -31.679688 16.671875 -32.484375 C 17.921875 -33.296875 19.289062 -33.851562 20.78125 -34.15625 C 22.269531 -34.457031 23.757812 -34.414062 25.25 -34.03125 C 26.738281 -33.644531 28.101562 -32.847656 29.34375 -31.640625 C 30.59375 -30.429688 31.597656 -28.726562 32.359375 -26.53125 C 33.128906 -24.34375 33.515625 -21.578125 33.515625 -18.234375 C 33.515625 -14.578125 33.050781 -11.46875 32.125 -8.90625 C 31.195312 -6.351562 29.96875 -4.320312 28.4375 -2.8125 C 26.914062 -1.300781 25.226562 -0.242188 23.375 0.359375 C 21.519531 0.960938 19.65625 1.164062 17.78125 0.96875 C 15.914062 0.769531 14.195312 0.222656 12.625 -0.671875 C 10.644531 -1.347656 8.929688 -1.472656 7.484375 -1.046875 C 6.035156 -0.628906 4.867188 -0.0195312 3.984375 0.78125 C 3.984375 0.78125 3.898438 0.78125 3.734375 0.78125 C 3.578125 0.78125 3.441406 0.722656 3.328125 0.609375 C 3.160156 0.484375 3.085938 0.367188 3.109375 0.265625 C 3.128906 0.171875 3.140625 0.125 3.140625 0.125 C 3.179688 0 3.210938 -0.710938 3.234375 -2.015625 C 3.253906 -3.328125 3.28125 -5.0625 3.3125 -7.21875 C 3.351562 -9.375 3.382812 -11.769531 3.40625 -14.40625 C 3.425781 -17.039062 3.445312 -19.753906 3.46875 -22.546875 C 3.488281 -25.347656 3.507812 -28.066406 3.53125 -30.703125 C 3.550781 -33.347656 3.570312 -35.710938 3.59375 -37.796875 C 3.613281 -39.890625 3.625 -41.550781 3.625 -42.78125 C 3.625 -44.007812 3.625 -44.625 3.625 -44.625 L 0.84375 -46.5 L 0.84375 -47.34375 C 0.84375 -47.34375 1.1875 -47.34375 1.875 -47.34375 C 2.5625 -47.34375 3.425781 -47.351562 4.46875 -47.375 C 5.519531 -47.394531 6.578125 -47.40625 7.640625 -47.40625 C 8.703125 -47.40625 9.632812 -47.40625 10.4375 -47.40625 C 11.25 -47.40625 11.734375 -47.40625 11.890625 -47.40625 C 12.492188 -47.40625 12.988281 -47.234375 13.375 -46.890625 C 13.757812 -46.546875 13.929688 -46.035156 13.890625 -45.359375 C 13.890625 -45.273438 13.878906 -44.507812 13.859375 -43.0625 C 13.835938 -41.613281 13.816406 -39.707031 13.796875 -37.34375 C 13.773438 -34.988281 13.742188 -32.40625 13.703125 -29.59375 Z M 13.40625 -1.5625 C 14.9375 -0.644531 16.234375 -0.296875 17.296875 -0.515625 C 18.367188 -0.734375 19.242188 -1.351562 19.921875 -2.375 C 20.609375 -3.40625 21.144531 -4.707031 21.53125 -6.28125 C 21.914062 -7.851562 22.175781 -9.550781 22.3125 -11.375 C 22.457031 -13.207031 22.53125 -15.007812 22.53125 -16.78125 C 22.53125 -18.351562 22.46875 -19.9375 22.34375 -21.53125 C 22.21875 -23.125 22.015625 -24.613281 21.734375 -26 C 21.453125 -27.382812 21.0625 -28.539062 20.5625 -29.46875 C 20.0625 -30.394531 19.425781 -30.957031 18.65625 -31.15625 C 18.132812 -31.320312 17.5 -31.222656 16.75 -30.859375 C 16.007812 -30.492188 15.347656 -29.976562 14.765625 -29.3125 C 14.179688 -28.65625 13.828125 -27.90625 13.703125 -27.0625 C 13.660156 -24.476562 13.628906 -21.878906 13.609375 -19.265625 C 13.597656 -16.648438 13.570312 -14.171875 13.53125 -11.828125 C 13.488281 -9.492188 13.457031 -7.429688 13.4375 -5.640625 C 13.414062 -3.847656 13.40625 -2.488281 13.40625 -1.5625 Z M 13.40625 -1.5625 "/></g></g></g><g fill="#ce441e" fill-opacity="1"><g transform="translate(72.100132, 183.610655)"><g><path d="M 16.96875 -33.578125 C 22.363281 -33.578125 26.15625 -32.132812 28.34375 -29.25 C 30.539062 -26.375 31.640625 -22.238281 31.640625 -16.84375 C 31.640625 -13.34375 31.175781 -10.34375 30.25 -7.84375 C 29.320312 -5.351562 27.789062 -3.441406 25.65625 -2.109375 C 23.53125 -0.785156 20.632812 -0.125 16.96875 -0.125 C 12.175781 -0.125 8.507812 -1.429688 5.96875 -4.046875 C 3.4375 -6.660156 2.191406 -11.050781 2.234375 -17.21875 C 2.316406 -22.570312 3.484375 -26.632812 5.734375 -29.40625 C 7.992188 -32.1875 11.738281 -33.578125 16.96875 -33.578125 Z M 16.96875 -32.375 C 16.164062 -32.375 15.5 -31.945312 14.96875 -31.09375 C 14.445312 -30.25 14.023438 -29.160156 13.703125 -27.828125 C 13.378906 -26.503906 13.144531 -25.097656 13 -23.609375 C 12.863281 -22.117188 12.785156 -20.707031 12.765625 -19.375 C 12.753906 -18.050781 12.75 -16.988281 12.75 -16.1875 C 12.75 -15.414062 12.765625 -14.414062 12.796875 -13.1875 C 12.835938 -11.96875 12.9375 -10.671875 13.09375 -9.296875 C 13.257812 -7.929688 13.492188 -6.644531 13.796875 -5.4375 C 14.097656 -4.226562 14.507812 -3.238281 15.03125 -2.46875 C 15.5625 -1.707031 16.207031 -1.328125 16.96875 -1.328125 C 17.769531 -1.328125 18.421875 -1.726562 18.921875 -2.53125 C 19.429688 -3.34375 19.847656 -4.378906 20.171875 -5.640625 C 20.492188 -6.910156 20.734375 -8.257812 20.890625 -9.6875 C 21.054688 -11.125 21.15625 -12.484375 21.1875 -13.765625 C 21.226562 -15.054688 21.25 -16.082031 21.25 -16.84375 C 21.25 -17.613281 21.226562 -18.640625 21.1875 -19.921875 C 21.15625 -21.210938 21.054688 -22.570312 20.890625 -24 C 20.734375 -25.4375 20.492188 -26.785156 20.171875 -28.046875 C 19.847656 -29.316406 19.429688 -30.351562 18.921875 -31.15625 C 18.421875 -31.96875 17.769531 -32.375 16.96875 -32.375 Z M 16.96875 -32.375 "/></g></g></g><g fill="#ce441e" fill-opacity="1"><g transform="translate(104.949131, 183.610655)"><g><path d="M 14.1875 -32.671875 C 15.757812 -33.554688 17.453125 -34.109375 19.265625 -34.328125 C 21.078125 -34.554688 22.628906 -34.507812 23.921875 -34.1875 C 23.921875 -34.144531 23.910156 -33.789062 23.890625 -33.125 C 23.867188 -32.457031 23.859375 -31.640625 23.859375 -30.671875 C 23.859375 -29.710938 23.847656 -28.75 23.828125 -27.78125 C 23.804688 -26.8125 23.796875 -25.992188 23.796875 -25.328125 C 23.796875 -24.671875 23.796875 -24.320312 23.796875 -24.28125 C 23.585938 -24.351562 23.253906 -24.679688 22.796875 -25.265625 C 22.335938 -25.859375 21.804688 -26.578125 21.203125 -27.421875 C 20.597656 -28.265625 19.992188 -29.085938 19.390625 -29.890625 C 18.785156 -30.691406 18.226562 -31.363281 17.71875 -31.90625 C 17.21875 -32.457031 16.804688 -32.734375 16.484375 -32.734375 C 15.398438 -32.566406 14.632812 -31.898438 14.1875 -30.734375 C 14.1875 -29.691406 14.1875 -28.273438 14.1875 -26.484375 C 14.1875 -24.691406 14.1875 -22.75 14.1875 -20.65625 C 14.1875 -18.5625 14.195312 -16.46875 14.21875 -14.375 C 14.238281 -12.28125 14.25 -10.359375 14.25 -8.609375 C 14.25 -6.859375 14.25 -5.445312 14.25 -4.375 C 14.25 -3.3125 14.25 -2.78125 14.25 -2.78125 L 17.03125 -0.84375 L 17.03125 0.0625 L 0.78125 0.0625 L 0.71875 -0.84375 L 3.921875 -2.78125 L 3.921875 -31.703125 L 1.140625 -33.515625 L 1.140625 -34.421875 C 1.140625 -34.421875 1.484375 -34.421875 2.171875 -34.421875 C 2.859375 -34.421875 3.722656 -34.421875 4.765625 -34.421875 C 5.816406 -34.421875 6.875 -34.421875 7.9375 -34.421875 C 9.007812 -34.421875 9.945312 -34.421875 10.75 -34.421875 C 11.550781 -34.421875 12.035156 -34.421875 12.203125 -34.421875 C 13.453125 -34.421875 14.113281 -33.835938 14.1875 -32.671875 Z M 14.1875 -32.671875 "/></g></g></g><g fill="#ce441e" fill-opacity="1"><g transform="translate(129.646258, 183.610655)"><g><path d="M 30.984375 -24.15625 C 30.984375 -24 30.929688 -23.796875 30.828125 -23.546875 C 30.722656 -23.304688 30.570312 -23.144531 30.375 -23.0625 C 29.851562 -22.90625 29.046875 -22.6875 27.953125 -22.40625 C 26.867188 -22.125 25.691406 -21.832031 24.421875 -21.53125 C 23.160156 -21.226562 21.984375 -20.992188 20.890625 -20.828125 C 20.648438 -20.992188 20.410156 -21.195312 20.171875 -21.4375 C 21.660156 -24.175781 22.515625 -26.460938 22.734375 -28.296875 C 22.953125 -30.128906 22.757812 -31.488281 22.15625 -32.375 C 21.550781 -33.257812 20.726562 -33.648438 19.6875 -33.546875 C 18.644531 -33.441406 17.566406 -32.816406 16.453125 -31.671875 C 15.347656 -30.523438 14.410156 -28.820312 13.640625 -26.5625 C 12.878906 -24.3125 12.5 -21.476562 12.5 -18.0625 C 12.5 -15.238281 12.898438 -12.972656 13.703125 -11.265625 C 14.515625 -9.554688 15.5625 -8.335938 16.84375 -7.609375 C 18.132812 -6.878906 19.515625 -6.554688 20.984375 -6.640625 C 22.453125 -6.722656 23.859375 -7.132812 25.203125 -7.875 C 26.554688 -8.625 27.675781 -9.625 28.5625 -10.875 L 29.296875 -10.5625 C 28.441406 -7.707031 27.171875 -5.441406 25.484375 -3.765625 C 23.796875 -2.097656 21.894531 -0.984375 19.78125 -0.421875 C 17.664062 0.140625 15.539062 0.191406 13.40625 -0.265625 C 11.269531 -0.734375 9.285156 -1.691406 7.453125 -3.140625 C 5.617188 -4.585938 4.140625 -6.488281 3.015625 -8.84375 C 1.890625 -11.195312 1.328125 -13.96875 1.328125 -17.15625 C 1.328125 -20.53125 1.835938 -23.375 2.859375 -25.6875 C 3.890625 -28.007812 5.257812 -29.875 6.96875 -31.28125 C 8.6875 -32.6875 10.582031 -33.660156 12.65625 -34.203125 C 14.726562 -34.753906 16.800781 -34.914062 18.875 -34.6875 C 20.945312 -34.46875 22.867188 -33.90625 24.640625 -33 C 26.410156 -32.09375 27.867188 -30.894531 29.015625 -29.40625 C 30.160156 -27.914062 30.816406 -26.164062 30.984375 -24.15625 Z M 30.984375 -24.15625 "/></g></g></g><g fill="#ce441e" fill-opacity="1"><g transform="translate(161.951794, 183.610655)"><g><path d="M 30.921875 -24.15625 C 30.921875 -24 30.867188 -23.796875 30.765625 -23.546875 C 30.671875 -23.304688 30.519531 -23.144531 30.3125 -23.0625 C 29.988281 -22.988281 29.3125 -22.675781 28.28125 -22.125 C 27.257812 -21.582031 26.023438 -20.921875 24.578125 -20.140625 C 23.128906 -19.359375 21.648438 -18.5625 20.140625 -17.75 C 18.628906 -16.945312 17.207031 -16.242188 15.875 -15.640625 C 14.550781 -15.035156 13.507812 -14.632812 12.75 -14.4375 C 13.1875 -11.851562 14.054688 -9.9375 15.359375 -8.6875 C 16.671875 -7.445312 18.148438 -6.765625 19.796875 -6.640625 C 21.453125 -6.523438 23.066406 -6.847656 24.640625 -7.609375 C 26.210938 -8.367188 27.5 -9.457031 28.5 -10.875 L 29.234375 -10.5625 C 28.378906 -7.707031 27.109375 -5.441406 25.421875 -3.765625 C 23.734375 -2.097656 21.832031 -0.984375 19.71875 -0.421875 C 17.601562 0.140625 15.476562 0.191406 13.34375 -0.265625 C 11.207031 -0.734375 9.222656 -1.691406 7.390625 -3.140625 C 5.566406 -4.585938 4.085938 -6.488281 2.953125 -8.84375 C 1.828125 -11.195312 1.265625 -13.96875 1.265625 -17.15625 C 1.265625 -20.488281 1.785156 -23.320312 2.828125 -25.65625 C 3.878906 -28 5.234375 -29.851562 6.890625 -31.21875 C 8.617188 -32.707031 10.53125 -33.734375 12.625 -34.296875 C 14.71875 -34.859375 16.800781 -35.03125 18.875 -34.8125 C 20.945312 -34.59375 22.867188 -34.019531 24.640625 -33.09375 C 26.410156 -32.164062 27.859375 -30.945312 28.984375 -29.4375 C 30.109375 -27.925781 30.753906 -26.164062 30.921875 -24.15625 Z M 23.796875 -30.140625 C 24.035156 -30.984375 23.929688 -31.6875 23.484375 -32.25 C 23.046875 -32.8125 22.40625 -33.179688 21.5625 -33.359375 C 20.71875 -33.546875 19.820312 -33.507812 18.875 -33.25 C 17.925781 -32.988281 17.085938 -32.453125 16.359375 -31.640625 C 15.316406 -30.472656 14.398438 -28.757812 13.609375 -26.5 C 12.828125 -24.25 12.4375 -21.4375 12.4375 -18.0625 C 12.4375 -17.695312 12.445312 -17.332031 12.46875 -16.96875 C 12.488281 -16.601562 12.519531 -16.257812 12.5625 -15.9375 C 16.382812 -19.769531 19.117188 -22.800781 20.765625 -25.03125 C 22.421875 -27.269531 23.429688 -28.972656 23.796875 -30.140625 Z M 23.796875 -30.140625 "/></g></g></g><g fill="#ce441e" fill-opacity="1"><g transform="translate(194.317713, 183.610655)"><g><path d="M 16.546875 -0.84375 L 16.546875 0 C 16.546875 0 15.859375 0 14.484375 0 C 13.117188 0 11.128906 0 8.515625 0 C 5.898438 0 3.863281 0 2.40625 0 C 0.957031 0 0.234375 0 0.234375 0 L 0.234375 -0.84375 L 3.4375 -2.78125 L 3.4375 -44.328125 L 0.671875 -46.203125 L 0.671875 -47.046875 C 0.671875 -47.046875 1.113281 -47.054688 2 -47.078125 C 2.882812 -47.097656 3.9375 -47.109375 5.15625 -47.109375 C 6.382812 -47.109375 7.503906 -47.109375 8.515625 -47.109375 C 9.117188 -47.109375 9.691406 -47.109375 10.234375 -47.109375 C 10.773438 -47.109375 11.25 -47.109375 11.65625 -47.109375 C 12.300781 -47.066406 12.8125 -46.875 13.1875 -46.53125 C 13.570312 -46.1875 13.742188 -45.671875 13.703125 -44.984375 C 13.703125 -44.742188 13.703125 -43.796875 13.703125 -42.140625 C 13.703125 -40.492188 13.703125 -38.398438 13.703125 -35.859375 C 13.703125 -33.328125 13.703125 -30.582031 13.703125 -27.625 C 13.703125 -24.664062 13.703125 -21.726562 13.703125 -18.8125 C 13.703125 -15.894531 13.703125 -13.226562 13.703125 -10.8125 C 13.703125 -8.394531 13.703125 -6.453125 13.703125 -4.984375 C 13.703125 -3.515625 13.703125 -2.78125 13.703125 -2.78125 Z M 16.546875 -0.84375 "/></g></g></g><g fill="#ce441e" fill-opacity="1"><g transform="translate(211.1649, 183.610655)"><g><path d="M 16.546875 -0.84375 L 16.546875 0 C 16.546875 0 15.859375 0 14.484375 0 C 13.117188 0 11.128906 0 8.515625 0 C 5.898438 0 3.863281 0 2.40625 0 C 0.957031 0 0.234375 0 0.234375 0 L 0.234375 -0.84375 L 3.4375 -2.78125 L 3.4375 -44.328125 L 0.671875 -46.203125 L 0.671875 -47.046875 C 0.671875 -47.046875 1.113281 -47.054688 2 -47.078125 C 2.882812 -47.097656 3.9375 -47.109375 5.15625 -47.109375 C 6.382812 -47.109375 7.503906 -47.109375 8.515625 -47.109375 C 9.117188 -47.109375 9.691406 -47.109375 10.234375 -47.109375 C 10.773438 -47.109375 11.25 -47.109375 11.65625 -47.109375 C 12.300781 -47.066406 12.8125 -46.875 13.1875 -46.53125 C 13.570312 -46.1875 13.742188 -45.671875 13.703125 -44.984375 C 13.703125 -44.742188 13.703125 -43.796875 13.703125 -42.140625 C 13.703125 -40.492188 13.703125 -38.398438 13.703125 -35.859375 C 13.703125 -33.328125 13.703125 -30.582031 13.703125 -27.625 C 13.703125 -24.664062 13.703125 -21.726562 13.703125 -18.8125 C 13.703125 -15.894531 13.703125 -13.226562 13.703125 -10.8125 C 13.703125 -8.394531 13.703125 -6.453125 13.703125 -4.984375 C 13.703125 -3.515625 13.703125 -2.78125 13.703125 -2.78125 Z M 16.546875 -0.84375 "/></g></g></g><g fill="#ce441e" fill-opacity="1"><g transform="translate(228.012096, 183.610655)"><g><path d="M 30.921875 -24.15625 C 30.921875 -24 30.867188 -23.796875 30.765625 -23.546875 C 30.671875 -23.304688 30.519531 -23.144531 30.3125 -23.0625 C 29.988281 -22.988281 29.3125 -22.675781 28.28125 -22.125 C 27.257812 -21.582031 26.023438 -20.921875 24.578125 -20.140625 C 23.128906 -19.359375 21.648438 -18.5625 20.140625 -17.75 C 18.628906 -16.945312 17.207031 -16.242188 15.875 -15.640625 C 14.550781 -15.035156 13.507812 -14.632812 12.75 -14.4375 C 13.1875 -11.851562 14.054688 -9.9375 15.359375 -8.6875 C 16.671875 -7.445312 18.148438 -6.765625 19.796875 -6.640625 C 21.453125 -6.523438 23.066406 -6.847656 24.640625 -7.609375 C 26.210938 -8.367188 27.5 -9.457031 28.5 -10.875 L 29.234375 -10.5625 C 28.378906 -7.707031 27.109375 -5.441406 25.421875 -3.765625 C 23.734375 -2.097656 21.832031 -0.984375 19.71875 -0.421875 C 17.601562 0.140625 15.476562 0.191406 13.34375 -0.265625 C 11.207031 -0.734375 9.222656 -1.691406 7.390625 -3.140625 C 5.566406 -4.585938 4.085938 -6.488281 2.953125 -8.84375 C 1.828125 -11.195312 1.265625 -13.96875 1.265625 -17.15625 C 1.265625 -20.488281 1.785156 -23.320312 2.828125 -25.65625 C 3.878906 -28 5.234375 -29.851562 6.890625 -31.21875 C 8.617188 -32.707031 10.53125 -33.734375 12.625 -34.296875 C 14.71875 -34.859375 16.800781 -35.03125 18.875 -34.8125 C 20.945312 -34.59375 22.867188 -34.019531 24.640625 -33.09375 C 26.410156 -32.164062 27.859375 -30.945312 28.984375 -29.4375 C 30.109375 -27.925781 30.753906 -26.164062 30.921875 -24.15625 Z M 23.796875 -30.140625 C 24.035156 -30.984375 23.929688 -31.6875 23.484375 -32.25 C 23.046875 -32.8125 22.40625 -33.179688 21.5625 -33.359375 C 20.71875 -33.546875 19.820312 -33.507812 18.875 -33.25 C 17.925781 -32.988281 17.085938 -32.453125 16.359375 -31.640625 C 15.316406 -30.472656 14.398438 -28.757812 13.609375 -26.5 C 12.828125 -24.25 12.4375 -21.4375 12.4375 -18.0625 C 12.4375 -17.695312 12.445312 -17.332031 12.46875 -16.96875 C 12.488281 -16.601562 12.519531 -16.257812 12.5625 -15.9375 C 16.382812 -19.769531 19.117188 -22.800781 20.765625 -25.03125 C 22.421875 -27.269531 23.429688 -28.972656 23.796875 -30.140625 Z M 23.796875 -30.140625 "/></g></g></g><g fill="#ca8010" fill-opacity="1"><g transform="translate(37.500002, 237.989324)"><g><path d="M 37.328125 -33.421875 C 37.484375 -31.609375 37.175781 -30.097656 36.40625 -28.890625 C 35.632812 -27.691406 34.566406 -26.6875 33.203125 -25.875 C 31.847656 -25.070312 30.351562 -24.363281 28.71875 -23.75 C 27.082031 -23.132812 25.4375 -22.507812 23.78125 -21.875 C 22.125 -21.25 20.613281 -20.503906 19.25 -19.640625 C 17.894531 -18.773438 16.84375 -17.671875 16.09375 -16.328125 L 16.265625 -2.71875 L 20.34375 -0.953125 L 20.34375 0.0625 C 20.34375 0.0625 19.925781 0.0507812 19.09375 0.03125 C 18.269531 0.0078125 17.160156 0 15.765625 0 C 14.367188 0 12.820312 0 11.125 0 C 8.5625 0 6.367188 0.0078125 4.546875 0.03125 C 2.734375 0.0507812 1.828125 0.0625 1.828125 0.0625 L 1.828125 -0.953125 L 6.15625 -2.71875 L 6.15625 -36.734375 C 6.15625 -37.484375 6.171875 -38.269531 6.203125 -39.09375 C 6.242188 -39.925781 6.265625 -40.34375 6.265625 -40.34375 L 1.828125 -42.171875 L 1.828125 -43.0625 C 1.828125 -43.0625 2.238281 -43.0625 3.0625 -43.0625 C 3.894531 -43.0625 4.984375 -43.0625 6.328125 -43.0625 C 7.671875 -43.0625 9.160156 -43.0625 10.796875 -43.0625 C 12.429688 -43.0625 14.066406 -43.0625 15.703125 -43.0625 C 17.335938 -43.0625 18.828125 -43.0625 20.171875 -43.0625 C 22.421875 -43.019531 24.53125 -42.910156 26.5 -42.734375 C 28.46875 -42.554688 30.222656 -42.171875 31.765625 -41.578125 C 33.304688 -40.992188 34.554688 -40.050781 35.515625 -38.75 C 36.484375 -37.445312 37.085938 -35.671875 37.328125 -33.421875 Z M 16.09375 -36.734375 L 16.09375 -18.390625 C 17.113281 -19.660156 18.132812 -20.695312 19.15625 -21.5 C 20.1875 -22.3125 21.175781 -23.03125 22.125 -23.65625 C 23.070312 -24.289062 23.9375 -24.960938 24.71875 -25.671875 C 25.507812 -26.378906 26.148438 -27.253906 26.640625 -28.296875 C 27.140625 -29.347656 27.445312 -30.722656 27.5625 -32.421875 C 27.71875 -34.347656 27.378906 -36.0625 26.546875 -37.5625 C 25.722656 -39.0625 24.691406 -40.210938 23.453125 -41.015625 C 22.210938 -41.828125 21 -42.195312 19.8125 -42.125 C 18.789062 -42.082031 17.914062 -41.613281 17.1875 -40.71875 C 16.457031 -39.832031 16.09375 -38.503906 16.09375 -36.734375 Z M 16.09375 -36.734375 "/></g></g></g><g fill="#ca8010" fill-opacity="1"><g transform="translate(75.529718, 237.989324)"><g><path d="M 20.640625 -0.828125 L 20.640625 0.0625 C 20.640625 0.0625 19.734375 0.0507812 17.921875 0.03125 C 16.109375 0.0078125 13.921875 0 11.359375 0 C 8.796875 0 6.609375 0.0078125 4.796875 0.03125 C 2.984375 0.0507812 2.078125 0.0625 2.078125 0.0625 L 2.078125 -0.828125 L 6.390625 -2.71875 L 6.390625 -40.34375 L 2.078125 -42.171875 L 2.078125 -43 C 2.078125 -43 2.984375 -43.007812 4.796875 -43.03125 C 6.609375 -43.050781 8.796875 -43.0625 11.359375 -43.0625 C 13.921875 -43.0625 16.109375 -43.050781 17.921875 -43.03125 C 19.734375 -43.007812 20.640625 -43 20.640625 -43 L 20.640625 -42.171875 L 16.5 -40.34375 L 16.5 -2.71875 Z M 20.640625 -0.828125 "/></g></g></g><g fill="#ca8010" fill-opacity="1"><g transform="translate(96.998976, 237.989324)"><g><path d="M 32.125 -43.125 L 32.125 -41.875 L 15.625 -5.140625 C 15.257812 -4.390625 14.976562 -3.796875 14.78125 -3.359375 C 14.59375 -2.929688 14.566406 -2.566406 14.703125 -2.265625 C 14.835938 -1.972656 15.257812 -1.671875 15.96875 -1.359375 C 16.757812 -1.046875 17.609375 -0.898438 18.515625 -0.921875 C 19.421875 -0.941406 20.207031 -1.066406 20.875 -1.296875 C 21.976562 -1.691406 22.941406 -2.375 23.765625 -3.34375 C 24.597656 -4.3125 25.300781 -5.4375 25.875 -6.71875 C 26.445312 -8 26.921875 -9.304688 27.296875 -10.640625 C 27.671875 -11.984375 27.9375 -13.226562 28.09375 -14.375 C 28.289062 -14.375 28.515625 -14.382812 28.765625 -14.40625 C 29.023438 -14.425781 29.253906 -14.414062 29.453125 -14.375 C 29.453125 -14.257812 29.453125 -13.765625 29.453125 -12.890625 C 29.453125 -12.023438 29.460938 -10.941406 29.484375 -9.640625 C 29.503906 -8.335938 29.535156 -6.976562 29.578125 -5.5625 C 29.578125 -4.695312 29.820312 -3.757812 30.3125 -2.75 C 30.8125 -1.75 31.257812 -0.972656 31.65625 -0.421875 C 31.8125 -0.0976562 31.75 0.0625 31.46875 0.0625 C 31.113281 0.0625 30.222656 0.0507812 28.796875 0.03125 C 27.378906 0.0078125 25.65625 0 23.625 0 C 21.601562 0 19.46875 0 17.21875 0 C 14.96875 0 12.828125 0 10.796875 0 C 8.765625 0 7.007812 0 5.53125 0 C 4.050781 0 3.09375 0.0195312 2.65625 0.0625 L 2.65625 -1.1875 L 19.21875 -37.984375 C 19.5 -38.535156 19.71875 -39.035156 19.875 -39.484375 C 20.03125 -39.941406 19.796875 -40.460938 19.171875 -41.046875 C 18.460938 -41.722656 17.503906 -42.085938 16.296875 -42.140625 C 15.097656 -42.203125 14.082031 -42.078125 13.25 -41.765625 C 12.144531 -41.367188 11.175781 -40.6875 10.34375 -39.71875 C 9.519531 -38.757812 8.820312 -37.632812 8.25 -36.34375 C 7.675781 -35.0625 7.203125 -33.75 6.828125 -32.40625 C 6.453125 -31.070312 6.1875 -29.832031 6.03125 -28.6875 C 5.832031 -28.644531 5.59375 -28.632812 5.3125 -28.65625 C 5.039062 -28.675781 4.804688 -28.6875 4.609375 -28.6875 C 4.648438 -28.8125 4.660156 -29.304688 4.640625 -30.171875 C 4.617188 -31.035156 4.609375 -32.128906 4.609375 -33.453125 C 4.609375 -34.773438 4.59375 -36.125 4.5625 -37.5 C 4.519531 -38.375 4.257812 -39.320312 3.78125 -40.34375 C 3.3125 -41.363281 2.859375 -42.132812 2.421875 -42.65625 C 2.265625 -42.96875 2.34375 -43.125 2.65625 -43.125 C 7.664062 -43.082031 12.566406 -43.0625 17.359375 -43.0625 C 22.148438 -43.0625 27.070312 -43.082031 32.125 -43.125 Z M 32.125 -43.125 "/></g></g></g><g fill="#ca8010" fill-opacity="1"><g transform="translate(129.70569, 237.989324)"><g><path d="M 32.125 -43.125 L 32.125 -41.875 L 15.625 -5.140625 C 15.257812 -4.390625 14.976562 -3.796875 14.78125 -3.359375 C 14.59375 -2.929688 14.566406 -2.566406 14.703125 -2.265625 C 14.835938 -1.972656 15.257812 -1.671875 15.96875 -1.359375 C 16.757812 -1.046875 17.609375 -0.898438 18.515625 -0.921875 C 19.421875 -0.941406 20.207031 -1.066406 20.875 -1.296875 C 21.976562 -1.691406 22.941406 -2.375 23.765625 -3.34375 C 24.597656 -4.3125 25.300781 -5.4375 25.875 -6.71875 C 26.445312 -8 26.921875 -9.304688 27.296875 -10.640625 C 27.671875 -11.984375 27.9375 -13.226562 28.09375 -14.375 C 28.289062 -14.375 28.515625 -14.382812 28.765625 -14.40625 C 29.023438 -14.425781 29.253906 -14.414062 29.453125 -14.375 C 29.453125 -14.257812 29.453125 -13.765625 29.453125 -12.890625 C 29.453125 -12.023438 29.460938 -10.941406 29.484375 -9.640625 C 29.503906 -8.335938 29.535156 -6.976562 29.578125 -5.5625 C 29.578125 -4.695312 29.820312 -3.757812 30.3125 -2.75 C 30.8125 -1.75 31.257812 -0.972656 31.65625 -0.421875 C 31.8125 -0.0976562 31.75 0.0625 31.46875 0.0625 C 31.113281 0.0625 30.222656 0.0507812 28.796875 0.03125 C 27.378906 0.0078125 25.65625 0 23.625 0 C 21.601562 0 19.46875 0 17.21875 0 C 14.96875 0 12.828125 0 10.796875 0 C 8.765625 0 7.007812 0 5.53125 0 C 4.050781 0 3.09375 0.0195312 2.65625 0.0625 L 2.65625 -1.1875 L 19.21875 -37.984375 C 19.5 -38.535156 19.71875 -39.035156 19.875 -39.484375 C 20.03125 -39.941406 19.796875 -40.460938 19.171875 -41.046875 C 18.460938 -41.722656 17.503906 -42.085938 16.296875 -42.140625 C 15.097656 -42.203125 14.082031 -42.078125 13.25 -41.765625 C 12.144531 -41.367188 11.175781 -40.6875 10.34375 -39.71875 C 9.519531 -38.757812 8.820312 -37.632812 8.25 -36.34375 C 7.675781 -35.0625 7.203125 -33.75 6.828125 -32.40625 C 6.453125 -31.070312 6.1875 -29.832031 6.03125 -28.6875 C 5.832031 -28.644531 5.59375 -28.632812 5.3125 -28.65625 C 5.039062 -28.675781 4.804688 -28.6875 4.609375 -28.6875 C 4.648438 -28.8125 4.660156 -29.304688 4.640625 -30.171875 C 4.617188 -31.035156 4.609375 -32.128906 4.609375 -33.453125 C 4.609375 -34.773438 4.59375 -36.125 4.5625 -37.5 C 4.519531 -38.375 4.257812 -39.320312 3.78125 -40.34375 C 3.3125 -41.363281 2.859375 -42.132812 2.421875 -42.65625 C 2.265625 -42.96875 2.34375 -43.125 2.65625 -43.125 C 7.664062 -43.082031 12.566406 -43.0625 17.359375 -43.0625 C 22.148438 -43.0625 27.070312 -43.082031 32.125 -43.125 Z M 32.125 -43.125 "/></g></g></g><g fill="#ca8010" fill-opacity="1"><g transform="translate(162.412404, 237.989324)"><g><path d="M 48.6875 -0.828125 L 48.6875 0 L 29.75 0.0625 L 29.75 -0.828125 L 32.65625 -2.90625 C 32.65625 -2.90625 32.46875 -3.414062 32.09375 -4.4375 C 31.71875 -5.457031 31.210938 -6.835938 30.578125 -8.578125 C 29.953125 -10.316406 29.242188 -12.207031 28.453125 -14.25 L 14.546875 -14.25 C 14.628906 -11.84375 14.90625 -9.644531 15.375 -7.65625 C 15.851562 -5.664062 16.582031 -4.066406 17.5625 -2.859375 C 18.550781 -1.660156 19.851562 -1.003906 21.46875 -0.890625 C 21.507812 -0.691406 21.507812 -0.519531 21.46875 -0.375 C 21.4375 -0.238281 21.4375 -0.132812 21.46875 -0.0625 C 21.394531 -0.0625 20.84375 -0.0625 19.8125 -0.0625 C 18.789062 -0.0625 17.507812 -0.0625 15.96875 -0.0625 C 14.4375 -0.0625 12.820312 -0.0625 11.125 -0.0625 C 9.425781 -0.0625 7.828125 -0.0625 6.328125 -0.0625 C 4.828125 -0.0625 3.59375 -0.0625 2.625 -0.0625 C 1.664062 -0.0625 1.164062 -0.0625 1.125 -0.0625 C 1.125 -0.175781 1.125 -0.289062 1.125 -0.40625 C 1.125 -0.53125 1.125 -0.691406 1.125 -0.890625 C 2.625 -1.515625 3.914062 -2.335938 5 -3.359375 C 6.082031 -4.390625 7.066406 -5.820312 7.953125 -7.65625 C 8.835938 -9.488281 9.765625 -11.914062 10.734375 -14.9375 C 11.703125 -17.957031 12.828125 -21.765625 14.109375 -26.359375 C 15.390625 -30.953125 16.9375 -36.519531 18.75 -43.0625 L 33.421875 -43 L 33.359375 -42.171875 L 29.640625 -40.28125 L 44.609375 -2.78125 Z M 14.546875 -15.328125 L 28.046875 -15.328125 C 27.097656 -17.804688 26.140625 -20.363281 25.171875 -23 C 24.203125 -25.644531 23.289062 -28.113281 22.4375 -30.40625 C 21.59375 -32.695312 20.90625 -34.5625 20.375 -36 C 19.84375 -37.4375 19.554688 -38.195312 19.515625 -38.28125 C 19.242188 -39.300781 19.03125 -39.789062 18.875 -39.75 C 18.71875 -39.707031 18.519531 -39.296875 18.28125 -38.515625 C 17.21875 -34.679688 16.328125 -30.734375 15.609375 -26.671875 C 14.898438 -22.617188 14.546875 -18.835938 14.546875 -15.328125 Z M 14.546875 -15.328125 "/></g></g></g><g fill="#ca8010" fill-opacity="1"><g transform="translate(211.502142, 237.989324)"><g><path d="M 38.515625 -3.484375 C 38.828125 -3.679688 39.070312 -3.660156 39.25 -3.421875 C 39.425781 -3.191406 39.414062 -2.957031 39.21875 -2.71875 C 38 -1.613281 36.6875 -0.875 35.28125 -0.5 C 33.882812 -0.125 32.359375 0.0195312 30.703125 -0.0625 C 28.296875 -0.132812 26.351562 -0.632812 24.875 -1.5625 C 23.394531 -2.488281 22.519531 -4.117188 22.25 -6.453125 C 21.925781 -9.484375 21.429688 -11.828125 20.765625 -13.484375 C 20.097656 -15.140625 19.367188 -16.28125 18.578125 -16.90625 C 17.785156 -17.539062 17.046875 -17.769531 16.359375 -17.59375 C 15.671875 -17.414062 15.128906 -16.972656 14.734375 -16.265625 L 14.84375 -2.71875 L 18.984375 -0.953125 L 18.984375 0.0625 C 18.984375 0.0625 18.566406 0.0507812 17.734375 0.03125 C 16.910156 0.0078125 15.796875 0 14.390625 0 C 12.992188 0 11.453125 0 9.765625 0 C 7.203125 0 5.007812 0.0078125 3.1875 0.03125 C 1.375 0.0507812 0.46875 0.0625 0.46875 0.0625 L 0.46875 -0.953125 L 4.796875 -2.71875 L 4.734375 -36.671875 C 4.734375 -37.421875 4.757812 -38.207031 4.8125 -39.03125 C 4.875 -39.863281 4.90625 -40.28125 4.90625 -40.28125 L 0.421875 -42.171875 L 0.421875 -43 C 0.421875 -43 0.832031 -43 1.65625 -43 C 2.488281 -43 3.582031 -43 4.9375 -43 C 6.300781 -43 7.789062 -43 9.40625 -43 C 11.019531 -43 12.65625 -43 14.3125 -43 C 15.96875 -43 17.46875 -43 18.8125 -43 C 21.0625 -42.96875 23.171875 -42.863281 25.140625 -42.6875 C 27.109375 -42.507812 28.863281 -42.125 30.40625 -41.53125 C 31.945312 -40.9375 33.1875 -39.988281 34.125 -38.6875 C 35.070312 -37.382812 35.664062 -35.609375 35.90625 -33.359375 C 36.0625 -31.546875 35.753906 -30.035156 34.984375 -28.828125 C 34.222656 -27.628906 33.160156 -26.625 31.796875 -25.8125 C 30.429688 -25.007812 28.921875 -24.289062 27.265625 -23.65625 C 25.609375 -23.03125 23.953125 -22.398438 22.296875 -21.765625 C 20.640625 -21.140625 19.144531 -20.375 17.8125 -19.46875 C 20.289062 -19.9375 22.394531 -19.960938 24.125 -19.546875 C 25.863281 -19.140625 27.304688 -18.421875 28.453125 -17.390625 C 29.597656 -16.367188 30.535156 -15.195312 31.265625 -13.875 C 31.992188 -12.550781 32.582031 -11.207031 33.03125 -9.84375 C 33.488281 -8.488281 33.882812 -7.257812 34.21875 -6.15625 C 34.550781 -5.050781 34.894531 -4.222656 35.25 -3.671875 C 35.570312 -3.160156 36.066406 -2.875 36.734375 -2.8125 C 37.398438 -2.75 37.992188 -2.972656 38.515625 -3.484375 Z M 18.453125 -42.0625 C 17.429688 -42.019531 16.554688 -41.554688 15.828125 -40.671875 C 15.097656 -39.785156 14.734375 -38.453125 14.734375 -36.671875 L 14.734375 -18.515625 C 15.910156 -19.816406 17.039062 -20.878906 18.125 -21.703125 C 19.21875 -22.535156 20.222656 -23.265625 21.140625 -23.890625 C 22.066406 -24.523438 22.882812 -25.1875 23.59375 -25.875 C 24.3125 -26.570312 24.894531 -27.421875 25.34375 -28.421875 C 25.800781 -29.429688 26.085938 -30.742188 26.203125 -32.359375 C 26.359375 -34.285156 26.019531 -36 25.1875 -37.5 C 24.363281 -39 23.332031 -40.148438 22.09375 -40.953125 C 20.851562 -41.765625 19.640625 -42.132812 18.453125 -42.0625 Z M 18.453125 -42.0625 "/></g></g></g><g fill="#ca8010" fill-opacity="1"><g transform="translate(251.247058, 237.989324)"><g><path d="M 20.640625 -0.828125 L 20.640625 0.0625 C 20.640625 0.0625 19.734375 0.0507812 17.921875 0.03125 C 16.109375 0.0078125 13.921875 0 11.359375 0 C 8.796875 0 6.609375 0.0078125 4.796875 0.03125 C 2.984375 0.0507812 2.078125 0.0625 2.078125 0.0625 L 2.078125 -0.828125 L 6.390625 -2.71875 L 6.390625 -40.34375 L 2.078125 -42.171875 L 2.078125 -43 C 2.078125 -43 2.984375 -43.007812 4.796875 -43.03125 C 6.609375 -43.050781 8.796875 -43.0625 11.359375 -43.0625 C 13.921875 -43.0625 16.109375 -43.050781 17.921875 -43.03125 C 19.734375 -43.007812 20.640625 -43 20.640625 -43 L 20.640625 -42.171875 L 16.5 -40.34375 L 16.5 -2.71875 Z M 20.640625 -0.828125 "/></g></g></g><g fill="#ca8010" fill-opacity="1"><g transform="translate(272.71631, 237.989324)"><g><path d="M 48.6875 -0.828125 L 48.6875 0 L 29.75 0.0625 L 29.75 -0.828125 L 32.65625 -2.90625 C 32.65625 -2.90625 32.46875 -3.414062 32.09375 -4.4375 C 31.71875 -5.457031 31.210938 -6.835938 30.578125 -8.578125 C 29.953125 -10.316406 29.242188 -12.207031 28.453125 -14.25 L 14.546875 -14.25 C 14.628906 -11.84375 14.90625 -9.644531 15.375 -7.65625 C 15.851562 -5.664062 16.582031 -4.066406 17.5625 -2.859375 C 18.550781 -1.660156 19.851562 -1.003906 21.46875 -0.890625 C 21.507812 -0.691406 21.507812 -0.519531 21.46875 -0.375 C 21.4375 -0.238281 21.4375 -0.132812 21.46875 -0.0625 C 21.394531 -0.0625 20.84375 -0.0625 19.8125 -0.0625 C 18.789062 -0.0625 17.507812 -0.0625 15.96875 -0.0625 C 14.4375 -0.0625 12.820312 -0.0625 11.125 -0.0625 C 9.425781 -0.0625 7.828125 -0.0625 6.328125 -0.0625 C 4.828125 -0.0625 3.59375 -0.0625 2.625 -0.0625 C 1.664062 -0.0625 1.164062 -0.0625 1.125 -0.0625 C 1.125 -0.175781 1.125 -0.289062 1.125 -0.40625 C 1.125 -0.53125 1.125 -0.691406 1.125 -0.890625 C 2.625 -1.515625 3.914062 -2.335938 5 -3.359375 C 6.082031 -4.390625 7.066406 -5.820312 7.953125 -7.65625 C 8.835938 -9.488281 9.765625 -11.914062 10.734375 -14.9375 C 11.703125 -17.957031 12.828125 -21.765625 14.109375 -26.359375 C 15.390625 -30.953125 16.9375 -36.519531 18.75 -43.0625 L 33.421875 -43 L 33.359375 -42.171875 L 29.640625 -40.28125 L 44.609375 -2.78125 Z M 14.546875 -15.328125 L 28.046875 -15.328125 C 27.097656 -17.804688 26.140625 -20.363281 25.171875 -23 C 24.203125 -25.644531 23.289062 -28.113281 22.4375 -30.40625 C 21.59375 -32.695312 20.90625 -34.5625 20.375 -36 C 19.84375 -37.4375 19.554688 -38.195312 19.515625 -38.28125 C 19.242188 -39.300781 19.03125 -39.789062 18.875 -39.75 C 18.71875 -39.707031 18.519531 -39.296875 18.28125 -38.515625 C 17.21875 -34.679688 16.328125 -30.734375 15.609375 -26.671875 C 14.898438 -22.617188 14.546875 -18.835938 14.546875 -15.328125 Z M 14.546875 -15.328125 "/></g></g></g><g clip-path="url(#ff005228f3)"><g clip-path="url(#6c065e79f8)"><path fill="#ce441e" d="M 39.3125 250.320312 L 151.820312 250.320312 L 151.820312 263.867188 L 39.3125 263.867188 Z M 39.3125 250.320312 " fill-opacity="1" fill-rule="nonzero"/></g></g><g clip-path="url(#4acbcd8d50)"><path fill="#ca8010" d="M 295.808594 106.8125 C 284.261719 107.007812 272.730469 110.710938 263 118.046875 C 261 119.527344 259.777344 121.785156 259.648438 124.296875 C 259.453125 126.8125 260.355469 129.261719 262.160156 131.003906 C 265.125 133.96875 270.15625 134.292969 273.378906 131.84375 C 275.570312 130.164062 278.019531 128.683594 280.46875 127.457031 C 281.179688 127.070312 282.015625 127.585938 282.210938 128.359375 C 282.210938 128.425781 282.273438 128.554688 282.273438 128.617188 C 282.660156 129.585938 283.820312 130.035156 284.789062 129.648438 C 290.140625 127.394531 295.941406 126.234375 301.613281 126.234375 C 308.769531 126.234375 315.28125 128.101562 320.503906 131.582031 C 320.828125 131.777344 321.210938 131.90625 321.597656 131.90625 C 322.242188 131.90625 322.824219 131.582031 323.210938 131.066406 C 323.597656 130.421875 324.566406 130.550781 324.824219 131.261719 C 325.273438 132.742188 325.144531 134.421875 324.371094 135.773438 L 296.78125 182.253906 L 273.828125 143.511719 C 273.25 142.542969 272.023438 142.285156 271.121094 142.867188 C 270.21875 143.445312 270.027344 144.671875 270.605469 145.574219 L 295.167969 187.023438 C 295.492188 187.605469 296.132812 187.992188 296.84375 187.992188 C 297.554688 187.992188 298.132812 187.605469 298.519531 187.023438 L 327.789062 137.707031 C 330.300781 133.453125 329.011719 127.78125 324.953125 125.136719 C 309.609375 115.210938 286.980469 116.691406 271.058594 128.746094 C 269.316406 130.035156 266.480469 129.84375 264.867188 128.230469 C 263.902344 127.265625 263.386719 125.910156 263.449219 124.492188 C 263.515625 123.136719 264.222656 121.914062 265.320312 121.074219 C 286.011719 105.539062 315.476562 107.601562 333.847656 125.910156 C 334.492188 126.554688 335.523438 126.75 336.296875 126.167969 C 337.328125 125.460938 337.457031 124.042969 336.621094 123.203125 C 325.523438 112.105469 310.652344 106.558594 295.808594 106.8125 Z M 307.289062 131.90625 C 306.738281 131.90625 306.191406 131.960938 305.652344 132.066406 C 305.113281 132.175781 304.589844 132.332031 304.082031 132.542969 C 303.574219 132.753906 303.089844 133.011719 302.632812 133.320312 C 302.175781 133.625 301.75 133.972656 301.363281 134.359375 C 300.972656 134.75 300.625 135.171875 300.320312 135.628906 C 300.015625 136.089844 299.757812 136.570312 299.546875 137.078125 C 299.335938 137.589844 299.175781 138.113281 299.070312 138.652344 C 298.960938 139.191406 298.90625 139.738281 298.90625 140.285156 C 298.90625 140.835938 298.960938 141.382812 299.070312 141.921875 C 299.175781 142.460938 299.335938 142.984375 299.546875 143.492188 C 299.757812 144.003906 300.015625 144.484375 300.320312 144.941406 C 300.625 145.398438 300.972656 145.824219 301.363281 146.210938 C 301.75 146.601562 302.175781 146.949219 302.632812 147.253906 C 303.089844 147.5625 303.574219 147.820312 304.082031 148.03125 C 304.589844 148.238281 305.113281 148.398438 305.652344 148.507812 C 306.191406 148.613281 306.738281 148.667969 307.289062 148.667969 C 307.839844 148.667969 308.382812 148.613281 308.921875 148.507812 C 309.464844 148.398438 309.988281 148.238281 310.496094 148.03125 C 311.003906 147.820312 311.488281 147.5625 311.945312 147.253906 C 312.402344 146.949219 312.824219 146.601562 313.214844 146.210938 C 313.601562 145.824219 313.949219 145.398438 314.257812 144.941406 C 314.5625 144.484375 314.820312 144.003906 315.03125 143.492188 C 315.242188 142.984375 315.402344 142.460938 315.507812 141.921875 C 315.617188 141.382812 315.667969 140.835938 315.667969 140.285156 C 315.667969 139.738281 315.617188 139.191406 315.507812 138.652344 C 315.402344 138.113281 315.242188 137.589844 315.03125 137.078125 C 314.820312 136.570312 314.5625 136.089844 314.257812 135.628906 C 313.949219 135.171875 313.601562 134.75 313.214844 134.359375 C 312.824219 133.972656 312.402344 133.625 311.945312 133.320312 C 311.488281 133.011719 311.003906 132.753906 310.496094 132.542969 C 309.988281 132.332031 309.464844 132.175781 308.921875 132.066406 C 308.382812 131.960938 307.839844 131.90625 307.289062 131.90625 Z M 296.070312 155.5 C 295.730469 155.5 295.398438 155.535156 295.066406 155.601562 C 294.734375 155.664062 294.410156 155.761719 294.097656 155.894531 C 293.785156 156.023438 293.488281 156.183594 293.207031 156.371094 C 292.925781 156.558594 292.664062 156.773438 292.425781 157.011719 C 292.183594 157.25 291.972656 157.511719 291.78125 157.792969 C 291.59375 158.074219 291.4375 158.371094 291.304688 158.683594 C 291.175781 158.996094 291.078125 159.320312 291.011719 159.652344 C 290.945312 159.984375 290.914062 160.320312 290.914062 160.65625 C 290.914062 160.996094 290.945312 161.332031 291.011719 161.664062 C 291.078125 161.996094 291.175781 162.320312 291.304688 162.632812 C 291.4375 162.945312 291.59375 163.242188 291.78125 163.523438 C 291.972656 163.804688 292.183594 164.066406 292.425781 164.304688 C 292.664062 164.542969 292.925781 164.757812 293.207031 164.945312 C 293.488281 165.132812 293.785156 165.292969 294.097656 165.421875 C 294.410156 165.550781 294.734375 165.648438 295.066406 165.714844 C 295.398438 165.78125 295.730469 165.816406 296.070312 165.816406 C 296.410156 165.816406 296.746094 165.78125 297.078125 165.714844 C 297.410156 165.648438 297.730469 165.550781 298.042969 165.421875 C 298.355469 165.292969 298.65625 165.132812 298.9375 164.945312 C 299.21875 164.757812 299.476562 164.542969 299.71875 164.304688 C 299.957031 164.066406 300.171875 163.804688 300.359375 163.523438 C 300.546875 163.242188 300.707031 162.945312 300.835938 162.632812 C 300.964844 162.320312 301.0625 161.996094 301.128906 161.664062 C 301.195312 161.332031 301.226562 160.996094 301.226562 160.65625 C 301.226562 160.320312 301.195312 159.984375 301.128906 159.652344 C 301.0625 159.320312 300.964844 158.996094 300.835938 158.683594 C 300.707031 158.371094 300.546875 158.074219 300.359375 157.792969 C 300.171875 157.511719 299.957031 157.25 299.71875 157.011719 C 299.476562 156.773438 299.21875 156.558594 298.9375 156.371094 C 298.65625 156.183594 298.355469 156.023438 298.042969 155.894531 C 297.730469 155.761719 297.410156 155.664062 297.078125 155.601562 C 296.746094 155.535156 296.410156 155.5 296.070312 155.5 Z M 296.070312 155.5 " fill-opacity="1" fill-rule="nonzero"/></g><g fill="#ce441e" fill-opacity="1"><g transform="translate(157.61828, 263.019007)"><g><path d="M 1.4375 -0.5625 L 4.515625 -11.84375 L 4.265625 -12.34375 L 7.671875 -12.34375 L 7.421875 -11.859375 L 10.484375 -0.5625 L 11.046875 0 L 7.4375 0 L 7.84375 -0.546875 L 7.53125 -1.703125 L 4.40625 -1.703125 L 4.09375 -0.546875 L 4.5 0 L 0.875 0 Z M 4.984375 -3.828125 L 6.96875 -3.828125 L 5.96875 -7.46875 Z M 4.984375 -3.828125 "/></g></g></g><g fill="#ce441e" fill-opacity="1"><g transform="translate(169.285856, 263.019007)"><g/></g></g><g fill="#ce441e" fill-opacity="1"><g transform="translate(174.978574, 263.019007)"><g><path d="M 5.5625 -2.984375 L 3.859375 -5.953125 L 3.859375 -0.640625 L 4.28125 0 L 0.875 0 L 1.296875 -0.640625 L 1.296875 -11.703125 L 0.875 -12.34375 L 3.859375 -12.34375 L 6.421875 -6.375 L 8.96875 -12.34375 L 11.953125 -12.34375 L 11.515625 -11.703125 L 11.515625 -0.640625 L 11.953125 0 L 8.53125 0 L 8.96875 -0.640625 L 8.96875 -5.953125 L 7.265625 -2.984375 Z M 5.5625 -2.984375 "/></g></g></g><g fill="#ce441e" fill-opacity="1"><g transform="translate(187.545025, 263.019007)"><g><path d="M 3.859375 -10.203125 L 3.859375 -7.21875 L 6.421875 -7.21875 L 6.84375 -5.109375 L 3.859375 -5.109375 L 3.859375 -2.125 L 6 -2.125 L 6 -2.984375 L 8.546875 -2.984375 L 8.546875 0 L 0.875 0 L 1.296875 -0.640625 L 1.296875 -11.703125 L 0.875 -12.34375 L 8.546875 -12.34375 L 8.546875 -9.359375 L 6 -9.359375 L 6 -10.203125 Z M 3.859375 -10.203125 "/></g></g></g><g fill="#ce441e" fill-opacity="1"><g transform="translate(196.692235, 263.019007)"><g><path d="M 8.546875 -2.984375 L 8.546875 0 L 0.875 0 L 1.296875 -0.640625 L 1.296875 -11.703125 L 0.875 -12.34375 L 4.28125 -12.34375 L 3.859375 -11.703125 L 3.859375 -2.125 L 6 -2.125 L 6 -2.984375 Z M 8.546875 -2.984375 "/></g></g></g><g fill="#ce441e" fill-opacity="1"><g transform="translate(205.839446, 263.019007)"><g><path d="M 3.859375 -11.703125 L 3.859375 -7.21875 L 6.625 -7.21875 L 6.625 -11.703125 L 6.203125 -12.34375 L 9.609375 -12.34375 L 9.1875 -11.703125 L 9.1875 -0.640625 L 9.609375 0 L 6.203125 0 L 6.625 -0.640625 L 6.625 -5.109375 L 3.859375 -5.109375 L 3.859375 -0.640625 L 4.28125 0 L 0.875 0 L 1.296875 -0.640625 L 1.296875 -11.703125 L 0.875 -12.34375 L 4.28125 -12.34375 Z M 3.859375 -11.703125 "/></g></g></g><g fill="#ce441e" fill-opacity="1"><g transform="translate(216.061783, 263.019007)"><g><path d="M 8.546875 -1.5 C 8.546875 -1.082031 8.398438 -0.726562 8.109375 -0.4375 C 7.816406 -0.144531 7.460938 0 7.046875 0 L 2.375 0 C 1.96875 0 1.617188 -0.144531 1.328125 -0.4375 C 1.023438 -0.726562 0.875 -1.082031 0.875 -1.5 L 0.875 -10.859375 C 0.875 -11.054688 0.914062 -11.25 1 -11.4375 C 1.070312 -11.613281 1.179688 -11.773438 1.328125 -11.921875 C 1.453125 -12.046875 1.609375 -12.148438 1.796875 -12.234375 C 1.972656 -12.304688 2.164062 -12.34375 2.375 -12.34375 L 7.046875 -12.34375 C 7.265625 -12.34375 7.46875 -12.304688 7.65625 -12.234375 C 7.820312 -12.148438 7.976562 -12.046875 8.125 -11.921875 C 8.25 -11.773438 8.351562 -11.613281 8.4375 -11.4375 C 8.507812 -11.25 8.546875 -11.054688 8.546875 -10.859375 Z M 6 -10.203125 L 3.4375 -10.203125 L 3.4375 -2.125 L 6 -2.125 Z M 6 -10.203125 "/></g></g></g><g fill="#ce441e" fill-opacity="1"><g transform="translate(225.208993, 263.019007)"><g><path d="M 3.859375 -0.640625 L 4.28125 0 L 0.875 0 L 1.296875 -0.640625 L 1.296875 -11.703125 L 0.875 -12.34375 L 7.46875 -12.34375 C 7.6875 -12.34375 7.890625 -12.304688 8.078125 -12.234375 C 8.253906 -12.148438 8.410156 -12.046875 8.546875 -11.921875 C 8.671875 -11.773438 8.773438 -11.613281 8.859375 -11.4375 C 8.929688 -11.25 8.96875 -11.054688 8.96875 -10.859375 L 8.96875 -5.53125 C 8.96875 -5.226562 8.878906 -4.953125 8.703125 -4.703125 C 8.523438 -4.441406 8.300781 -4.257812 8.03125 -4.15625 L 9.5 0 L 6.78125 0 L 5.359375 -4.03125 L 3.859375 -4.03125 Z M 3.859375 -10.203125 L 3.859375 -6.171875 L 6.421875 -6.171875 L 6.421875 -10.203125 Z M 3.859375 -10.203125 "/></g></g></g><g fill="#ce441e" fill-opacity="1"><g transform="translate(235.325575, 263.019007)"><g/></g></g><g fill="#ce441e" fill-opacity="1"><g transform="translate(241.018295, 263.019007)"><g><path d="M 8.96875 -1.5 C 8.96875 -1.082031 8.820312 -0.726562 8.53125 -0.4375 C 8.238281 -0.144531 7.882812 0 7.46875 0 L 0.875 0 L 1.296875 -0.640625 L 1.296875 -11.703125 L 0.875 -12.34375 L 7.46875 -12.34375 C 7.6875 -12.34375 7.890625 -12.304688 8.078125 -12.234375 C 8.253906 -12.148438 8.410156 -12.046875 8.546875 -11.921875 C 8.671875 -11.773438 8.773438 -11.613281 8.859375 -11.4375 C 8.929688 -11.25 8.96875 -11.054688 8.96875 -10.859375 Z M 6.421875 -10.203125 L 3.859375 -10.203125 L 3.859375 -2.125 L 6.421875 -2.125 Z M 6.421875 -10.203125 "/></g></g></g><g fill="#ce441e" fill-opacity="1"><g transform="translate(250.606126, 263.019007)"><g><path d="M 1.4375 -0.5625 L 4.515625 -11.84375 L 4.265625 -12.34375 L 7.671875 -12.34375 L 7.421875 -11.859375 L 10.484375 -0.5625 L 11.046875 0 L 7.4375 0 L 7.84375 -0.546875 L 7.53125 -1.703125 L 4.40625 -1.703125 L 4.09375 -0.546875 L 4.5 0 L 0.875 0 Z M 4.984375 -3.828125 L 6.96875 -3.828125 L 5.96875 -7.46875 Z M 4.984375 -3.828125 "/></g></g></g><g fill="#ce441e" fill-opacity="1"><g transform="translate(262.273703, 263.019007)"><g/></g></g><g fill="#ce441e" fill-opacity="1"><g transform="translate(267.966417, 263.019007)"><g><path d="M 6 -4.25 L 8.546875 -4.25 L 8.546875 -1.5 C 8.546875 -1.082031 8.398438 -0.726562 8.109375 -0.4375 C 7.816406 -0.144531 7.460938 0 7.046875 0 L 2.375 0 C 1.96875 0 1.617188 -0.144531 1.328125 -0.4375 C 1.023438 -0.726562 0.875 -1.082031 0.875 -1.5 L 0.875 -10.859375 C 0.875 -11.054688 0.914062 -11.25 1 -11.4375 C 1.070312 -11.613281 1.179688 -11.773438 1.328125 -11.921875 C 1.453125 -12.046875 1.609375 -12.148438 1.796875 -12.234375 C 1.972656 -12.304688 2.164062 -12.34375 2.375 -12.34375 L 7.046875 -12.34375 C 7.265625 -12.34375 7.46875 -12.304688 7.65625 -12.234375 C 7.820312 -12.148438 7.976562 -12.046875 8.125 -11.921875 C 8.25 -11.773438 8.351562 -11.613281 8.4375 -11.4375 C 8.507812 -11.25 8.546875 -11.054688 8.546875 -10.859375 L 8.546875 -8.09375 L 6 -7.671875 L 6 -10.203125 L 3.4375 -10.203125 L 3.4375 -2.125 L 6 -2.125 Z M 6 -4.25 "/></g></g></g><g fill="#ce441e" fill-opacity="1"><g transform="translate(277.113622, 263.019007)"><g><path d="M 0.875 0 L 1.296875 -0.640625 L 1.296875 -11.703125 L 0.875 -12.34375 L 4.28125 -12.34375 L 3.859375 -11.703125 L 3.859375 -0.640625 L 4.28125 0 Z M 0.875 0 "/></g></g></g><g fill="#ce441e" fill-opacity="1"><g transform="translate(282.013204, 263.019007)"><g><path d="M 8.96875 -1.5 C 8.96875 -1.082031 8.820312 -0.726562 8.53125 -0.4375 C 8.238281 -0.144531 7.882812 0 7.46875 0 L 0.875 0 L 1.296875 -0.640625 L 1.296875 -11.703125 L 0.875 -12.34375 L 7.46875 -12.34375 C 7.6875 -12.34375 7.890625 -12.304688 8.078125 -12.234375 C 8.253906 -12.148438 8.410156 -12.046875 8.546875 -11.921875 C 8.671875 -11.773438 8.773438 -11.613281 8.859375 -11.4375 C 8.929688 -11.25 8.96875 -11.054688 8.96875 -10.859375 Z M 6.421875 -10.203125 L 3.859375 -10.203125 L 3.859375 -2.125 L 6.421875 -2.125 Z M 6.421875 -10.203125 "/></g></g></g><g fill="#ce441e" fill-opacity="1"><g transform="translate(291.601029, 263.019007)"><g><path d="M 1.4375 -0.5625 L 4.515625 -11.84375 L 4.265625 -12.34375 L 7.671875 -12.34375 L 7.421875 -11.859375 L 10.484375 -0.5625 L 11.046875 0 L 7.4375 0 L 7.84375 -0.546875 L 7.53125 -1.703125 L 4.40625 -1.703125 L 4.09375 -0.546875 L 4.5 0 L 0.875 0 Z M 4.984375 -3.828125 L 6.96875 -3.828125 L 5.96875 -7.46875 Z M 4.984375 -3.828125 "/></g></g></g><g fill="#ce441e" fill-opacity="1"><g transform="translate(303.2686, 263.019007)"><g><path d="M 8.96875 -1.5 C 8.96875 -1.082031 8.820312 -0.726562 8.53125 -0.4375 C 8.238281 -0.144531 7.882812 0 7.46875 0 L 0.875 0 L 1.296875 -0.640625 L 1.296875 -11.703125 L 0.875 -12.34375 L 7.46875 -12.34375 C 7.6875 -12.34375 7.890625 -12.304688 8.078125 -12.234375 C 8.253906 -12.148438 8.410156 -12.046875 8.546875 -11.921875 C 8.671875 -11.773438 8.773438 -11.613281 8.859375 -11.4375 C 8.929688 -11.25 8.96875 -11.054688 8.96875 -10.859375 Z M 6.421875 -10.203125 L 3.859375 -10.203125 L 3.859375 -2.125 L 6.421875 -2.125 Z M 6.421875 -10.203125 "/></g></g></g><g fill="#ce441e" fill-opacity="1"><g transform="translate(312.856425, 263.019007)"><g><path d="M 3.859375 -10.203125 L 3.859375 -7.21875 L 6.421875 -7.21875 L 6.84375 -5.109375 L 3.859375 -5.109375 L 3.859375 -2.125 L 6 -2.125 L 6 -2.984375 L 8.546875 -2.984375 L 8.546875 0 L 0.875 0 L 1.296875 -0.640625 L 1.296875 -11.703125 L 0.875 -12.34375 L 8.546875 -12.34375 L 8.546875 -9.359375 L 6 -9.359375 L 6 -10.203125 Z M 3.859375 -10.203125 "/></g></g></g></svg>